<svg width="20" height="20" viewBox="0 0 20 20" fill="none" xmlns="http://www.w3.org/2000/svg">
<g clip-path="url(#clip0)">
<path d="M10 15L13.3 14.6L19.4 8.4C19.8 8 20 7.5 20 7C20 5.9 19.1 5 18 5C17.4 5 17 5.2 16.6 5.6L10.5 11.8L10 15ZM17.3 6.3C17.5 6.1 17.7 6 18 6C18.6 6 19 6.4 19 7C19 7.3 18.9 7.5 18.7 7.7L18 8.4L16.6 7L17.3 6.3ZM16 7.6L17.4 9L14 12.5V11.7V11H13.3H12.6L16 7.6ZM11.5216 12.0015H12.9961V13.5509L11.1967 13.9008L11.5216 12.0015Z" fill="#90A4AE"/>
<path fill-rule="evenodd" clip-rule="evenodd" d="M13 7H8C6.89543 7 6 7.89543 6 9V17C6 18.1046 6.89543 19 8 19H16C17.1046 19 18 18.1046 18 17V12H17V17C17 17.5523 16.5523 18 16 18H8C7.44772 18 7 17.5523 7 17V9C7 8.44772 7.44772 8 8 8H13V7Z" fill="#90A4AE"/>
<path fill-rule="evenodd" clip-rule="evenodd" d="M5 4C3.89543 4 3 4.89543 3 6V14C3 15.1046 3.89543 16 5 16H6V15H5C4.44772 15 4 14.5523 4 14V6C4 5.44772 4.44772 5 5 5H13C13.5523 5 14 5.44772 14 6H15C15 4.89543 14.1046 4 13 4H5Z" fill="#90A4AE"/>
<path fill-rule="evenodd" clip-rule="evenodd" d="M2 1C0.895431 1 0 1.89543 0 3V11C0 12.1046 0.895431 13 2 13H3V12H2C1.44772 12 1 11.5523 1 11V3C1 2.44772 1.44772 2 2 2H10C10.5523 2 11 2.44772 11 3V4H12V3C12 1.89543 11.1046 1 10 1H2Z" fill="#90A4AE"/>
</g>
</svg>
