<svg width="20" height="20" viewBox="0 0 20 20" fill="none" xmlns="http://www.w3.org/2000/svg">
<path d="M7.4 15H11C11.3 15 11.5 14.8 11.5 14.5C11.5 14.2 11.3 14 11 14H7.4C7.2 14 7 14.2 7 14.5C7 14.8 7.2 15 7.4 15ZM7.4 17H12.8C13.1 17 13.3 16.8 13.3 16.5C13.3 16.2 13.1 16 12.8 16H7.4C7.2 16 7 16.3 7 16.5C7 16.8 7.2 17 7.4 17ZM17.3 5H16V0.9C16 0.4 15.6 0 15.1 0H4.9C4.4 0 4 0.4 4 0.9V5H2.7C1.2 5 0 6.2 0 7.7V15C0 16.5 1.2 17.7 2.7 17.7H4V19.1C4 19.6 4.4 20 4.9 20H15.1C15.6 20 16 19.6 16 19.1V17.7H17.3C18.8 17.7 20 16.5 20 15V7.7C20 6.2 18.8 5 17.3 5ZM5 1H15V5H5V1ZM15 17.7V19H5V17.7V13H15V17.7ZM19 15C19 16 18.2 16.8 17.2 16.8H16V12.9C16 12.4 15.6 12 15.1 12H4.9C4.4 12 4 12.4 4 12.9V16.8H2.8C1.8 16.8 1 16 1 15V7.8C1 6.8 1.8 6 2.8 6H17.2C18.2 6 19 6.8 19 7.8V15ZM15.9 7.7C15.4 7.7 14.9 8.1 14.9 8.6C14.9 9.1 15.4 9.5 15.9 9.5C16.4 9.5 16.8 9.1 16.8 8.6C16.8 8.1 16.4 7.7 15.9 7.7ZM13.2 7.7C12.7 7.7 12.3 8.1 12.3 8.6C12.3 9.1 12.7 9.5 13.2 9.5C13.7 9.5 14.1 9.1 14.1 8.6C14.1 8.1 13.7 7.7 13.2 7.7Z" fill="#90A4AE"/>
</svg>
