<svg width="135" height="145" viewBox="0 0 135 145" fill="none" xmlns="http://www.w3.org/2000/svg">
<path d="M41.5 2.50049H54H127.5L133.5 10.0005V104.5L95.5 143H41.5L37.5 135.5V6.50049L41.5 2.50049Z" fill="white"/>
<rect x="114" y="91.0005" width="59" height="8" rx="4" transform="rotate(-90 114 91.0005)" fill="#00BCD4" stroke="#37474F" stroke-width="4"/>
<rect x="99" y="91.0005" width="48" height="8" rx="4" transform="rotate(-90 99 91.0005)" fill="#8BC34A" stroke="#37474F" stroke-width="4"/>
<rect x="84" y="91.0005" width="37" height="8" rx="4" transform="rotate(-90 84 91.0005)" fill="#FFC107" stroke="#37474F" stroke-width="4"/>
<rect x="69" y="91.0005" width="26" height="8" rx="4" transform="rotate(-90 69 91.0005)" fill="#CC87FE" stroke="#37474F" stroke-width="4"/>
<path d="M123 21.0005C123 19.8959 122.105 19.0005 121 19.0005H49C47.8954 19.0005 47 19.8959 47 21.0005V21.0005C47 22.1051 47.8954 23.0005 49 23.0005H121C122.105 23.0005 123 22.1051 123 21.0005V21.0005Z" fill="#37474F"/>
<rect width="38" height="4" rx="2" transform="matrix(-1 0 0 1 86 104)" fill="#37474F"/>
<rect width="38" height="4" rx="2" transform="matrix(-1 0 0 1 86 113)" fill="#37474F"/>
<rect width="38" height="4" rx="2" transform="matrix(-1 0 0 1 86 122)" fill="#37474F"/>
<rect width="38" height="4" rx="2" transform="matrix(-1 0 0 1 86 131)" fill="#37474F"/>
<path d="M129.691 108H104.5C101.186 108 98.5 110.687 98.5 114L98.5 139.191L94.5 143.191L94.5 114C94.5 108.478 98.9772 104 104.5 104H133.691L129.691 108Z" fill="#37474F"/>
<path d="M125 4C128.314 4 131 6.68628 131 10V109.5L135 105.5V10C135 4.47717 130.523 0 125 0H74.3984C73.7246 0 73.127 0.334595 72.7637 0.847046C72.5332 1.17297 72.3984 1.57068 72.3984 2C72.3984 3.10461 73.2949 4 74.3984 4H125Z" fill="#37474F"/>
<path d="M95.8086 144.691L99.8086 140.691H45C41.6855 140.691 39 138.005 39 134.691V10C39 6.68628 41.6855 4 45 4H55C56.1035 4 57 3.10461 57 2C57 0.895386 56.1035 0 55 0H45C39.4766 0 35 4.47717 35 10V134.691C35 140.214 39.4766 144.691 45 144.691H95.8086Z" fill="#37474F"/>
<path d="M65.3984 0C64.2949 0 63.3984 0.895386 63.3984 2C63.3984 3.10461 64.2949 4 65.3984 4C66.5039 4 67.3984 3.10461 67.3984 2C67.3984 0.895386 66.5039 0 65.3984 0Z" fill="#37474F"/>
<path d="M94.569 141.851L95.8148 144.68L134.883 105.611L132.055 104L130.744 104.093L94.569 140.269V141.851Z" fill="#37474F"/>
<circle cx="36.4199" cy="90.3218" r="35" fill="white"/>
<circle cx="39.4199" cy="94.3218" r="35" fill="#03A9F4"/>
<path fill-rule="evenodd" clip-rule="evenodd" d="M50 88.0005C48.8954 88.0005 48 88.8959 48 90.0005C48 91.1051 48.8954 92.0005 50 92.0005C51.1046 92.0005 52 91.1051 52 90.0005C52 88.8959 51.1046 88.0005 50 88.0005ZM56 90.0005C56 93.3142 53.3137 96.0005 50 96.0005C46.6863 96.0005 44 93.3142 44 90.0005C44 86.6868 46.6863 84.0005 50 84.0005C53.3137 84.0005 56 86.6868 56 90.0005Z" fill="white"/>
<path fill-rule="evenodd" clip-rule="evenodd" d="M26 77.0005C24.8954 77.0005 24 77.8959 24 79.0005C24 80.1051 24.8954 81.0005 26 81.0005C27.1046 81.0005 28 80.1051 28 79.0005C28 77.8959 27.1046 77.0005 26 77.0005ZM32 79.0005C32 82.3142 29.3137 85.0005 26 85.0005C22.6863 85.0005 20 82.3142 20 79.0005C20 75.6868 22.6863 73.0005 26 73.0005C29.3137 73.0005 32 75.6868 32 79.0005Z" fill="white"/>
<path fill-rule="evenodd" clip-rule="evenodd" d="M26 100C24.8954 100 24 100.896 24 102C24 103.105 24.8954 104 26 104C27.1046 104 28 103.105 28 102C28 100.896 27.1046 100 26 100ZM32 102C32 105.314 29.3137 108 26 108C22.6863 108 20 105.314 20 102C20 98.6868 22.6863 96.0005 26 96.0005C29.3137 96.0005 32 98.6868 32 102Z" fill="white"/>
<path d="M47.5 92.0005C48.1818 93.1815 50.1501 92.8441 48.9691 93.526L27.7154 103.671C26.5344 104.353 30.1818 101.682 29.5 100.501C28.8181 99.3196 24.0653 100.076 25.2462 99.394L46.5 89.2493C47.681 88.5675 46.8182 90.8196 47.5 92.0005Z" fill="white"/>
<path d="M29.0082 80.5005C29.69 79.3195 26.5459 76.65 27.7268 77.3318L48.2923 86.9667C48.5 88.5005 48.0798 86.6378 47.0044 88.5005L45.7189 91.1837L25.2577 81.6085C24.0767 80.9267 28.3263 81.6815 29.0082 80.5005Z" fill="white"/>
<circle cx="37.037" cy="90.0375" r="35.037" stroke="#37474F" stroke-width="4"/>
</svg>
